<?xml version="1.0" encoding="iso-8859-1"?>
<!-- Generator: Adobe Illustrator 19.0.0, SVG Export Plug-In . SVG Version: 6.00 Build 0)  -->
<svg version="1.1" id="Layer_1" xmlns="http://www.w3.org/2000/svg" xmlns:xlink="http://www.w3.org/1999/xlink" x="0px" y="0px"
	 viewBox="0 0 512 512" style="enable-background:new 0 0 512 512;" xml:space="preserve">
<path style="fill:#01579B;" d="M491.52,419.84H20.48C12.483,411.843,7.997,407.357,0,399.36V112.64
	c7.997-7.997,12.483-12.483,20.48-20.48h471.04c7.997,7.997,12.483,12.483,20.48,20.48v286.72
	C504.003,407.357,499.517,411.843,491.52,419.84z"/>
<rect y="153.6" style="fill:#263238;" width="512" height="61.44"/>
<rect x="143.36" y="245.76" style="fill:#FFECB3;" width="225.28" height="40.96"/>
<path style="fill:#FFC107;" d="M256,51.2c112.927,0,204.8,91.873,204.8,204.8S368.927,460.8,256,460.8
	c-45.896,0-88.177-15.36-122.358-40.96H73.021c45.025,50.237,110.367,81.92,182.979,81.92c135.506,0,245.76-110.244,245.76-245.76
	S391.506,10.24,256,10.24c-72.612,0-137.953,31.683-182.979,81.92h60.621C167.823,66.56,210.104,51.2,256,51.2z"/>
<path style="fill:#263238;" d="M256,0v10.24C120.494,10.24,10.24,120.484,10.24,256S120.494,501.76,256,501.76V512
	C114.842,512,0,397.158,0,256S114.842,0,256,0z"/>
<g>
	<path style="fill:#01579B;" d="M360.509,419.84h17.848C344.166,445.44,301.896,460.8,256,460.8v-10.24
		C294.472,450.56,330.281,439.194,360.509,419.84z"/>
	<path style="fill:#01579B;" d="M378.358,92.16h-17.848C330.281,72.806,294.472,61.44,256,61.44V51.2
		C301.896,51.2,344.177,66.56,378.358,92.16z"/>
</g>
<polygon style="fill:#F44336;" points="491.52,71.68 440.32,71.68 440.32,20.48 378.88,20.48 378.88,71.68 327.68,71.68 
	327.68,133.12 378.88,133.12 378.88,184.32 440.32,184.32 440.32,133.12 491.52,133.12 "/>
<g>
</g>
<g>
</g>
<g>
</g>
<g>
</g>
<g>
</g>
<g>
</g>
<g>
</g>
<g>
</g>
<g>
</g>
<g>
</g>
<g>
</g>
<g>
</g>
<g>
</g>
<g>
</g>
<g>
</g>
</svg>
